<svg viewBox="0 0 67 70" xmlns="http://www.w3.org/2000/svg" xmlns:xlink="http://www.w3.org/1999/xlink" width="67.000000" height="70.000000" fill="none" customFrame="#000000">
	<path id="Vector" d="M40.3917 0C56.5078 0 67 9.39342 67 22.1004C67 34.7513 56.2756 44.0453 39.9789 44.0453L24.504 44.0453L24.504 53.6377L48.0093 53.6377L48.0093 59.2234L24.504 59.2234L24.504 70L11.5536 70L11.5536 59.2234L0 59.2234L0 53.6377L11.5499 53.6377L11.5499 44.0484L0 44.0484L0 38.413L11.5499 38.413L11.5499 0L40.3917 0ZM36.8168 9.24423L24.5077 9.24423L24.5077 35.1492L36.7542 35.1492C48.1272 35.1492 53.8101 30.1075 53.8101 22.147C53.8101 14.2393 48.1272 9.24734 36.8131 9.24734" fill="rgb(0,0,0)" fill-rule="nonzero" />
</svg>
